<?xml version="1.0" standalone="no"?>
<!DOCTYPE svg PUBLIC "-//W3C//DTD SVG 20010904//EN"
 "http://www.w3.org/TR/2001/REC-SVG-20010904/DTD/svg10.dtd">
<svg version="1.0" xmlns="http://www.w3.org/2000/svg"
 width="30.000000pt" height="30.000000pt" viewBox="0 0 30.000000 30.000000"
 preserveAspectRatio="xMidYMid meet">
<metadata>
Created by potrace 1.11, written by Peter Selinger 2001-2013
</metadata>
<g transform="translate(0.000000,30.000000) scale(0.100000,-0.100000)"
fill="#000000" stroke="none">
<path d="M253 258 c-49 -54 -65 -84 -88 -161 l-16 -57 -27 32 c-28 32 -99 88
-114 88 -4 0 -8 -22 -8 -48 0 -49 0 -49 43 -62 23 -7 54 -21 69 -31 42 -30 55
-24 87 39 16 32 46 73 66 90 35 31 36 34 33 94 l-3 61 -42 -45z"/>
</g>
</svg>
