<?xml version="1.0" encoding="UTF-8" standalone="no"?>
<!-- Generator: Adobe Illustrator 16.0.3, SVG Export Plug-In . SVG Version: 6.00 Build 0)  -->

<svg
   xmlns:dc="http://purl.org/dc/elements/1.1/"
   xmlns:cc="http://creativecommons.org/ns#"
   xmlns:rdf="http://www.w3.org/1999/02/22-rdf-syntax-ns#"
   xmlns:svg="http://www.w3.org/2000/svg"
   xmlns="http://www.w3.org/2000/svg"
   xmlns:xlink="http://www.w3.org/1999/xlink"
   xmlns:sodipodi="http://sodipodi.sourceforge.net/DTD/sodipodi-0.dtd"
   xmlns:inkscape="http://www.inkscape.org/namespaces/inkscape"
   version="1.1"
   x="0px"
   y="0px"
   width="60"
   height="60"
   viewBox="0 0 60 60"
   enable-background="new 0 0 550 78"
   xml:space="preserve"
   id="svg2"
   inkscape:version="0.48.4 r9939"
   sodipodi:docname="trustpilot-logo.svg"><metadata
     id="metadata66"><rdf:RDF><cc:Work
         rdf:about=""><dc:format>image/svg+xml</dc:format><dc:type
           rdf:resource="http://purl.org/dc/dcmitype/StillImage" /></cc:Work></rdf:RDF></metadata><defs
     id="defs64"><linearGradient
       inkscape:collect="always"
       xlink:href="#SVGID_3_"
       id="linearGradient3076"
       gradientUnits="userSpaceOnUse"
       x1="66.933601"
       y1="10.9443"
       x2="66.933601"
       y2="10.9928" /><linearGradient
       inkscape:collect="always"
       xlink:href="#SVGID_4_"
       id="linearGradient3078"
       gradientUnits="userSpaceOnUse"
       x1="37.931599"
       y1="11.2227"
       x2="37.931599"
       y2="68.939201" /><linearGradient
       id="SVGID_1_"
       gradientUnits="userSpaceOnUse"
       x1="37.903301"
       y1="69.1689"
       x2="37.903301"
       y2="35.959999"><stop
         offset="0"
         style="stop-color:#E37A26"
         id="stop33" /><stop
         offset="0.4725"
         style="stop-color:#F9A21E"
         id="stop35" /></linearGradient><linearGradient
       id="SVGID_2_"
       gradientUnits="userSpaceOnUse"
       x1="37.794399"
       y1="33.620098"
       x2="37.794399"
       y2="11.333"><stop
         offset="0"
         style="stop-color:#FFFFFF"
         id="stop40" /><stop
         offset="1"
         style="stop-color:#F9A21E"
         id="stop42" /></linearGradient><linearGradient
       inkscape:collect="always"
       xlink:href="#SVGID_2_"
       id="linearGradient3096"
       gradientUnits="userSpaceOnUse"
       x1="37.794399"
       y1="33.620098"
       x2="37.794399"
       y2="11.333"
       gradientTransform="translate(-8,-10)" /><linearGradient
       inkscape:collect="always"
       xlink:href="#SVGID_1_"
       id="linearGradient3099"
       gradientUnits="userSpaceOnUse"
       x1="37.903301"
       y1="69.1689"
       x2="37.903301"
       y2="35.959999"
       gradientTransform="translate(-8,-10)" /></defs><sodipodi:namedview
     pagecolor="#ffffff"
     bordercolor="#666666"
     borderopacity="1"
     objecttolerance="10"
     gridtolerance="10"
     guidetolerance="10"
     inkscape:pageopacity="0"
     inkscape:pageshadow="2"
     inkscape:window-width="1197"
     inkscape:window-height="919"
     id="namedview62"
     showgrid="false"
     inkscape:zoom="6.6648028"
     inkscape:cx="29.47491"
     inkscape:cy="44.642445"
     inkscape:window-x="552"
     inkscape:window-y="253"
     inkscape:window-maximized="0"
     inkscape:current-layer="svg2" /><g
     id="White_bg"
     transform="matrix(0.08182158,0,0,0.41202361,2.667971,13.172946)"><rect
       x="-21.333"
       y="-29.667"
       width="708.66101"
       height="141"
       id="rect5"
       style="fill:#ffffff" /></g><path
     d="m 0.894,0.944 v 25.688 c 0,0 19.393,9.258 29.265,25.811 0,0 4.355,-36.555 28.81,-51.498 H 0.894 z"
     id="path30"
     inkscape:connector-curvature="0"
     style="fill:#f9a21e" /><path
     d="M 0.837,47.8 V 59.169 H 26.97 c 0,0 -9.956,-10.598 -26.133,-11.369 z M 33.984,59.147 H 58.969 V 25.96 C 44.829,29.79 33.984,59.147 33.984,59.147 z"
     id="path37"
     style="fill:url(#linearGradient3099)"
     inkscape:connector-curvature="0" /><path
     d="m 1.225,1.333 h 57.139 c 0,0 -9.386,3.305 -19.489,21.928 0,0 -22.095,2.248 -37.596,-4.5 L 1.225,1.333 z"
     id="path44"
     style="opacity:0.5;fill:url(#linearGradient3096)"
     inkscape:connector-curvature="0" /><g
     id="g46"
     transform="translate(-8,-10)"><linearGradient
       id="SVGID_3_"
       gradientUnits="userSpaceOnUse"
       x1="66.933601"
       y1="10.9443"
       x2="66.933601"
       y2="10.9928"><stop
         offset="0"
         style="stop-color:#484848"
         id="stop49" /><stop
         offset="1"
         style="stop-color:#000000"
         id="stop51" /></linearGradient><path
       d="m 66.898,10.993 c 0.026,-0.014 0.048,-0.035 0.071,-0.049"
       id="path53"
       style="fill:url(#linearGradient3076)"
       inkscape:connector-curvature="0" /><linearGradient
       id="SVGID_4_"
       gradientUnits="userSpaceOnUse"
       x1="37.931599"
       y1="11.2227"
       x2="37.931599"
       y2="68.939201"><stop
         offset="0"
         style="stop-color:#484848"
         id="stop56" /><stop
         offset="1"
         style="stop-color:#000000"
         id="stop58" /></linearGradient><path
       d="M 38.159,62.442 C 28.287,45.89 8.894,36.632 8.894,36.632 V 57.81 C 25.036,58.604 34.97,69.169 34.97,69.169 l 7.014,-0.021 c 0,0 10.845,-29.357 24.985,-33.188 V 10.993 H 66.898 C 42.51,25.964 38.159,62.442 38.159,62.442 z"
       id="path60"
       style="fill:url(#linearGradient3078)"
       inkscape:connector-curvature="0" /></g></svg>